# File created by Blade
# Date/Time:  Wed Sep 24 20:15:16 2014
# Frame Rate: 120.000 fps
#------------------------------------------------------
:FULLY-SPECIFIED
:DEGREES
1615
root -6.211780 32.765345 -5.506451 16.292412 5.518223 -1.758782
Spine -19.969528 6.382640 -0.854913
Head -9.142983 -11.557002 11.109004
LeftShoulder -4.705227 17.297671 9.972852
LeftArm 25.769264 37.567682 -70.459888
LeftForeArm -0.834940 -0.000000 21.238723
LeftHand -22.056773 0.000000 -3.510490
LeftHandThumb1 -26.253704 0.000000 33.147579
RightShoulder -15.826756 13.987071 -14.419280
RightArm -8.405730 -3.615427 90.034445
RightForeArm 57.515358 0.000000 114.638097
RightHand 9.393148 -0.000000 27.924456
RightHandThumb1 -24.326973 -0.000000 -32.862282
LeftUpLeg -14.692259 5.011651 4.724166
LeftLeg 0.892001 -0.000000 -0.000000
LeftFoot -11.148187 6.482367 -18.282344
LeftToeBase 9.843004 -0.000000 -0.000000
RightUpLeg -14.640765 -7.873339 -0.284651
RightLeg 4.014787 -0.000000 -0.000000
RightFoot -8.800709 -4.072499 -13.281671
RightToeBase 0.352558 -0.000000 -0.000000
1616
root -6.211050 32.765466 -5.507335 16.250389 5.480986 -1.763249
Spine -19.958071 6.354143 -0.883245
Head -9.018956 -11.625049 11.174419
LeftShoulder -4.725809 17.307281 9.959679
LeftArm 25.761681 37.511889 -70.455960
LeftForeArm -0.817284 -0.000000 21.184992
LeftHand -22.045748 -0.000000 -3.682743
LeftHandThumb1 -26.253704 0.000000 33.147579
RightShoulder -15.756449 14.054306 -14.370716
RightArm -8.432175 -3.605997 89.994346
RightForeArm 57.325774 -0.000000 112.055338
RightHand 9.444461 -0.000000 26.395615
RightHandThumb1 -24.326973 -0.000000 -32.862282
LeftUpLeg -14.649363 5.033993 4.725294
LeftLeg 0.901932 -0.000000 -0.000000
LeftFoot -11.140809 6.481170 -18.392565
LeftToeBase 9.779369 -0.000000 -0.000000
RightUpLeg -14.602552 -7.874730 -0.288599
RightLeg 4.005384 -0.000000 -0.000000
RightFoot -8.806179 -4.031116 -13.247808
RightToeBase 0.372827 -0.000000 -0.000000
1617
root -6.212262 32.765805 -5.505322 16.221747 5.445990 -1.792494
Spine -19.964835 6.421460 -0.927556
Head -8.957128 -11.796561 11.262697
LeftShoulder -4.689141 17.277510 9.972881
LeftArm 25.744740 37.507151 -70.450749
LeftForeArm -0.784008 -0.000000 21.127563
LeftHand -22.060349 -0.000000 -3.950386
LeftHandThumb1 -26.253704 0.000000 33.147579
RightShoulder -15.812989 14.115682 -14.369096
RightArm -8.477560 -3.511167 89.960125
RightForeArm 57.422606 -0.000000 109.299378
RightHand 9.195320 -0.000000 24.894476
RightHandThumb1 -24.326973 -0.000000 -32.862282
LeftUpLeg -14.624592 5.101830 4.739428
LeftLeg 0.923813 -0.000000 -0.000000
LeftFoot -11.158404 6.452106 -18.401589
LeftToeBase 9.814934 -0.000000 -0.000000
RightUpLeg -14.571390 -7.871683 -0.261190
RightLeg 3.990584 -0.000000 -0.000000
RightFoot -8.764624 -4.006799 -13.303483
RightToeBase 0.291469 -0.000000 -0.000000
1618
root -6.212449 32.766392 -5.505562 16.190781 5.412277 -1.800729
Spine -19.971610 6.430806 -0.973368
Head -8.849475 -11.925109 11.330606
LeftShoulder -4.691363 17.285542 9.953658
LeftArm 25.734627 37.440229 -70.438394
LeftForeArm -0.746440 -0.000000 21.081856
LeftHand -22.118033 -0.000000 -4.259159
LeftHandThumb1 -26.253704 0.000000 33.147579
RightShoulder -15.767512 14.205826 -14.325360
RightArm -8.531715 -3.448711 89.932570
RightForeArm 57.436750 -0.000000 106.437006
RightHand 9.135248 0.000000 23.533800
RightHandThumb1 -24.326973 -0.000000 -32.862282
LeftUpLeg -14.595177 5.131937 4.739134
LeftLeg 0.935457 -0.000000 -0.000000
LeftFoot -11.181428 6.484248 -18.220362
LeftToeBase 9.827140 -0.000000 -0.000000
RightUpLeg -14.539503 -7.873554 -0.257280
RightLeg 3.973012 -0.000000 -0.000000
RightFoot -8.772129 -3.950310 -13.255745
RightToeBase 0.327848 -0.000000 -0.000000
1619
root -6.213089 32.767190 -5.505293 16.147514 5.379205 -1.814350
Spine -19.966513 6.434086 -1.015337
Head -8.728129 -12.065933 11.404454
LeftShoulder -4.694863 17.267293 9.926211
LeftArm 25.737219 37.402604 -70.398613
LeftForeArm -0.938708 0.000000 21.004461
LeftHand -22.014609 -0.000000 -3.729779
LeftHandThumb1 -26.253704 0.000000 33.147579
RightShoulder -15.714870 14.256907 -14.265561
RightArm -8.507464 -3.415282 89.905135
RightForeArm 57.717682 -0.000000 103.411744
RightHand 9.039688 -0.000000 22.177420
RightHandThumb1 -24.326973 -0.000000 -32.862282
LeftUpLeg -14.551685 5.177211 4.744473
LeftLeg 0.945644 -0.000000 -0.000000
LeftFoot -11.159543 6.467198 -18.337957
LeftToeBase 9.717607 -0.000000 -0.000000
RightUpLeg -14.493586 -7.864778 -0.249403
RightLeg 3.955407 -0.000000 -0.000000
RightFoot -8.753070 -3.933033 -13.283650
RightToeBase 0.350419 -0.000000 -0.000000
